#!OML:ASF H:\Male1\Project 1\Capture day 1\Session 1\Male1.ASF
:FULLY-SPECIFIED
:DEGREES
574
root 7.97865 15.2454 -1.29887 372.184 260.386 -376.381
lowerback 5.61708 1.57365 -4.08778
upperback 5.17343 1.77598 -2.09394
thorax 2.13128 0.718965 0.0623852
lowerneck -6.16091 4.6181 9.11939
upperneck 10.9462 6.23352 -9.03457
head 4.85663 2.89382 -3.90858
rclavicle 1.5207e-014 -7.55382e-015
rhumerus -33.4595 -1.01791 -89.012
rradius 33.7101
rwrist -14.1007
rhand -15.2107 0.779373
rfingers 7.12502
rthumb 10.9615 -28.9145
lclavicle 1.5207e-014 -7.55382e-015
lhumerus -16.8234 -18.5692 90.7717
lradius 36.6763
lwrist 7.09111
lhand -22.6668 11.301
lfingers 7.12502
lthumb 3.76486 41.2475
rfemur -24.389 22.278 11.4002
rtibia 27.9162
rfoot -27.9244 -29.1772
rtoes -24.2265
lfemur 20.3417 -12.7796 -30.6711
ltibia 5.51159
lfoot -15.4191 17.1363
ltoes -7.12493
575
root 7.77719 15.2169 -1.39245 372.157 260.868 -376.423
lowerback 5.57296 1.49492 -3.94588
upperback 5.19311 1.68291 -1.93944
thorax 2.17772 0.675221 0.147396
lowerneck -6.16138 4.59902 9.05448
upperneck 11.0442 6.22374 -9.08023
head 4.88497 2.88222 -3.91337
rclavicle -1.42131e-014 6.75868e-015
rhumerus -34.0001 -0.676477 -89.0597
rradius 34.4607
rwrist -13.0689
rhand -15.5256 0.704675
rfingers 7.12502
rthumb 10.6578 -29.005
lclavicle -1.42131e-014 6.75868e-015
lhumerus -16.6591 -18.6423 90.7879
lradius 36.7505
lwrist 6.63662
lhand -22.3901 11.7851
lfingers 7.12502
lthumb 4.03206 41.7267
rfemur -23.685 22.345 11.8156
rtibia 27.8796
rfoot -27.0368 -29.0195
rtoes -23.9988
lfemur 20.4029 -12.6519 -30.3531
ltibia 7.15571
lfoot -15.6495 16.8497
ltoes -8.75023
576
root 7.57379 15.19 -1.48608 374.021 261.347 -378.342
lowerback 5.37338 1.39325 -3.98534
upperback 5.28673 1.56068 -1.91465
thorax 2.38849 0.607997 0.204453
lowerneck -6.13398 4.59317 9.09453
upperneck 10.9231 6.22253 -9.19706
head 4.84792 2.87883 -3.9573
rclavicle -5.10877e-014 1.11319e-014
rhumerus -34.3064 -0.630051 -89.0459
rradius 35.3408
rwrist -12.9788
rhand -14.7841 -0.0322114
rfingers 7.12502
rthumb 11.3729 -29.7038
lclavicle -5.10877e-014 1.11319e-014
lhumerus -16.5366 -18.6483 90.7189
lradius 36.8078
lwrist 6.30166
lhand -22.2517 12.3604
lfingers 7.12502
lthumb 4.16576 42.2994
rfemur -22.843 21.3765 12.2399
rtibia 28.0653
rfoot -25.6963 -28.4398
rtoes -24.4677
lfemur 20.039 -12.5998 -30.2816
ltibia 9.48591
lfoot -15.9067 16.435
ltoes -11.0169
577
root 7.3672 15.1751 -1.58029 376.237 261.805 -380.615
lowerback 5.49007 1.30734 -3.94563
upperback 5.1235 1.44236 -1.95426
thorax 2.15937 0.559026 0.142458
lowerneck -5.84099 4.59539 9.16898
upperneck 10.9023 6.24033 -9.23014
head 4.79682 2.89528 -3.98441
rclavicle -2.56929e-014 -9.14409e-015
rhumerus -34.9424 -0.623216 -89.0959
rradius 36.0187
rwrist -13.1434
rhand -14.7089 -0.414173
rfingers 7.12502
rthumb 11.4455 -30.0818
lclavicle -2.56929e-014 -9.14409e-015
lhumerus -17.0503 -18.5987 90.7785
lradius 36.9278
lwrist 5.98083
lhand -21.9375 13.1673
lfingers 7.12502
lthumb 4.46915 43.1001
rfemur -22.0047 20.1669 12.6991
rtibia 28.3732
rfoot -24.4438 -28.1374
rtoes -25.0602
lfemur 19.4402 -12.547 -30.2108
ltibia 12.2371
lfoot -15.8966 15.9843
ltoes -14.8679
578
root 7.16382 15.1763 -1.67824 374.542 262.215 -378.955
lowerback 5.60555 1.24749 -3.40828
upperback 5.02631 1.37992 -1.83582
thorax 2.00332 0.54847 -0.0355018
lowerneck -5.62381 4.66355 9.16702
upperneck 10.838 6.35063 -9.28124
head 4.75239 2.95174 -3.99639
rclavicle -6.75868e-015 7.55382e-015
rhumerus -35.3242 -0.766646 -89.0153
rradius 36.4511
rwrist -13.5059
rhand -15.0111 0.146544
rfingers 7.12502
rthumb 11.1541 -29.537
lclavicle -6.75868e-015 7.55382e-015
lhumerus -17.6324 -18.3523 90.8278
lradius 36.9067
lwrist 6.0792
lhand -21.9521 12.4547
lfingers 7.12502
lthumb 4.45499 42.3878
rfemur -21.2633 19.5238 13.6615
rtibia 28.717
rfoot -23.8172 -28.1498
rtoes -24.6805
lfemur 18.7031 -12.4587 -29.5653
ltibia 15.2699
lfoot -15.5499 15.5666
ltoes -18.3194
579
root 6.958 15.1826 -1.77461 371.988 262.496 -376.424
lowerback 5.38292 1.20094 -2.8178
upperback 5.16995 1.35352 -1.68408
thorax 2.28472 0.546486 -0.202818
lowerneck -5.65012 4.80628 9.20669
upperneck 10.6935 6.55481 -9.47273
head 4.73994 3.04407 -4.04765
rclavicle -2.43511e-014 1.59028e-014
rhumerus -35.179 -0.942856 -88.8849
rradius 36.6216
rwrist -14.0381
rhand -15.214 0.965944
rfingers 7.12502
rthumb 10.9583 -28.7281
lclavicle -2.43511e-014 1.59028e-014
lhumerus -17.9577 -17.6126 90.7433
lradius 36.9003
lwrist 5.69484
lhand -21.7105 12.4183
lfingers 7.12502
lthumb 4.68831 42.3464
rfemur -20.4691 18.4777 14.6931
rtibia 28.9737
rfoot -23.2543 -27.4793
rtoes -24.1384
lfemur 17.7042 -12.1044 -28.7939
ltibia 18.7214
lfoot -15.1121 14.8175
ltoes -19.4086
580
root 6.74537 15.1933 -1.86808 369.289 262.648 -373.601
lowerback 5.07866 1.18327 -2.18043
upperback 5.15808 1.36863 -1.56738
thorax 2.45193 0.573853 -0.43353
lowerneck -5.5419 4.90201 9.32826
upperneck 10.6592 6.69999 -9.65951
head 4.73553 3.11258 -4.1182
rclavicle 1.27222e-014 1.11319e-014
rhumerus -35.0789 -1.07999 -88.7843
rradius 36.4915
rwrist -14.6714
rhand -15.2862 1.42462
rfingers 7.12502
rthumb 10.8888 -28.2731
lclavicle 1.27222e-014 1.11319e-014
lhumerus -18.6059 -16.4477 90.686
lradius 36.7847
lwrist 4.92903
lhand -21.4563 12.5224
lfingers 7.12502
lthumb 4.93377 42.445
rfemur -19.6234 16.5665 15.6994
rtibia 29.0578
rfoot -22.8218 -26.0087
rtoes -24.0187
lfemur 16.213 -11.4365 -27.9003
ltibia 22.6662
lfoot -14.6758 13.929
ltoes -17.9366
581
root 6.53151 15.2075 -1.96764 365.702 262.73 -369.776
lowerback 4.65679 1.16674 -1.54295
upperback 5.11286 1.38479 -1.4102
thorax 2.65023 0.602876 -0.620782
lowerneck -5.5031 4.99386 9.36519
upperneck 10.7396 6.83696 -9.74286
head 4.77113 3.17612 -4.14141
rclavicle -1.36664e-014 1.66979e-014
rhumerus -34.8579 -1.18453 -88.6445
rradius 36.1468
rwrist -15.1792
rhand -15.2489 1.58057
rfingers 7.12502
rthumb 10.9247 -28.1152
lclavicle -1.36664e-014 1.66979e-014
lhumerus -19.3091 -14.9702 90.5575
lradius 36.4955
lwrist 4.14814
lhand -21.3077 12.7667
lfingers 7.12502
lthumb 5.07729 42.6859
rfemur -18.8335 14.7287 16.778
rtibia 29.0244
rfoot -22.3022 -24.8625
rtoes -24.3226
lfemur 14.2525 -10.3947 -26.6333
ltibia 27.0401
lfoot -13.9268 12.9087
ltoes -17.0945
582
root 6.3271 15.2218 -2.07242 363.446 262.879 -367.298
lowerback 4.39517 1.14926 -1.17697
upperback 5.02985 1.38227 -1.29523
thorax 2.71554 0.615016 -0.70263
lowerneck -5.49922 5.11594 9.50517
upperneck 10.9012 7.01435 -9.89012
head 4.84761 3.25811 -4.19799
rclavicle 1.799e-014 -4.77083e-015
rhumerus -34.6508 -1.33889 -88.5029
rradius 35.8628
rwrist -15.5376
rhand -15.2783 1.33832
rfingers 7.12502
rthumb 10.8963 -28.359
lclavicle 1.799e-014 -4.77083e-015
lhumerus -20.0898 -13.3331 90.3318
lradius 36.1863
lwrist 3.40934
lhand -20.8799 13.1413
lfingers 7.12502
lthumb 5.49027 43.0502
rfemur -18.2113 13.1013 17.6907
rtibia 28.9511
rfoot -20.3366 -24.6409
rtoes -28.2234
lfemur 12.0346 -9.21867 -25.3625
ltibia 31.5754
lfoot -12.4063 11.5299
ltoes -19.4503
